<svg version="1.2" xmlns="http://www.w3.org/2000/svg" viewBox="0 0 130 124" width="130" height="124">
	<title>image</title>
	<style>
		<!-- .s0 { fill: #007ef3;stroke: #007ef3 } 
		.s1 { fill: #007ef3 }  -->
	</style>
	<path id="Layer" class="s0" d="m27.1 40.2c-3.9 0-7.3 2.2-8.9 5.8-1.6 3.6-0.9 7.5 1.8 10.4q0.2 0.2 0.4 0.4c0.5 0.5 1.1 0.7 1.7 0.7 0.7 0 1.3-0.2 1.8-0.7 1-1 1-2.6 0-3.5q-0.1-0.2-0.3-0.3c-1.3-1.4-1.6-3.3-0.8-5 0.7-1.8 2.3-2.8 4.3-2.8 1.3 0 2.5-1.1 2.5-2.5 0-1.4-1.2-2.5-2.5-2.5z"/>
	<path id="Layer" class="s0" d="m80.2 45.2c1.9 0 3.5 1 4.3 2.8 0.7 1.7 0.4 3.6-0.9 5q-0.1 0.1-0.2 0.3c-1 0.9-1 2.5 0 3.5 0.4 0.5 1.1 0.7 1.7 0.7 0.7 0 1.3-0.2 1.8-0.7q0.2-0.2 0.4-0.4c2.6-2.9 3.3-6.8 1.8-10.4-1.6-3.6-5-5.8-8.9-5.8-1.4 0-2.5 1.1-2.5 2.5 0 1.4 1.1 2.5 2.5 2.5z"/>
	<path id="Layer" class="s0" d="m37.4 34.6q0.3 0 0.5 0c3.3-0.1 6.1-2.1 7.3-5.2 1.3-3.1 0.6-6.5-1.8-8.8-1-1-2.6-1-3.5 0-1 1-1 2.5 0 3.5 0.9 1 1.2 2.3 0.7 3.5-0.5 1.2-1.6 2-2.9 2q-0.1 0-0.3 0c-1.4 0-2.5 1.1-2.5 2.5 0 1.4 1.1 2.5 2.5 2.5z"/>
	<path id="Layer" class="s0" d="m69.4 35.3q0.2 0 0.4 0c1.4 0 2.5-1.1 2.5-2.5 0-1.3-1.1-2.5-2.5-2.5q-0.1 0-0.3 0c-1.3 0-2.3-0.8-2.8-2-0.5-1.2-0.2-2.5 0.7-3.5 1-0.9 1-2.5 0-3.5-1-1-2.6-1-3.5 0-2.4 2.3-3.1 5.7-1.9 8.8 1.2 3.1 4.1 5.1 7.4 5.2z"/>
	<path id="Layer" class="s0" d="m39.9 63.1c-1 1-1 2.6 0 3.5 0.9 1 1.2 2.3 0.7 3.5-0.5 1.2-1.6 2-2.9 2q-0.1 0-0.3 0c-1.4 0-2.5 1.2-2.5 2.5 0 1.4 1.1 2.5 2.5 2.5q0.3 0 0.5 0c3.3-0.1 6.1-2.1 7.3-5.2 1.3-3.1 0.6-6.4-1.8-8.8-1-1-2.6-1-3.5 0z"/>
	<path id="Layer" fill-rule="evenodd" class="s1" d="m129 90.5c0 17.9-14.5 32.4-32.2 32.4-15.7 0-28.8-11.3-31.7-26.3-4.8-0.1-8.9-2.5-11.5-6.2-2.6 3.8-6.9 6.3-11.8 6.3-5.5 0-10.5-3.2-12.9-8q-2.2 0.8-4.6 0.8c-7.9 0-14.3-6.5-14.3-14.4q0-2.2 0.6-4.3c-6.1-5.7-9.6-13.6-9.6-22 0-9 4-17.4 11-23.1q0.2-0.1 0.4-0.3-0.3-1.4-0.3-2.8c0-7.9 6.4-14.4 14.3-14.4q1.4 0 2.8 0.3c2.5-4.5 7.3-7.4 12.6-7.4 4.9 0 9.2 2.4 11.8 6.2 2.6-3.8 7-6.2 11.9-6.2 5.5 0 10.4 3.1 12.8 7.9q2.3-0.8 4.7-0.8c7.9 0 14.3 6.5 14.3 14.4q0 2.2-0.7 4.3c8.9 8.1 11.9 20.8 7.9 32 14.1 3.5 24.5 16.3 24.5 31.6zm-64.5 1.1q0-0.6 0-1.1c0-4.7 1-9 2.7-13-2.3-0.7-4.2-2.5-5.2-4.8-1.2-3.1-0.5-6.5 1.9-8.9 0.9-1 2.5-1 3.5 0 1 1 1 2.6 0 3.5-0.9 1-1.2 2.3-0.7 3.5 0.5 1.2 1.5 2 2.8 2q0.1 0 0.2 0.1c5.7-9 15.7-14.9 27.1-14.9q1.3 0 2.7 0.1c4-10 1-21.6-7.4-28.5-0.9-0.7-1.2-2-0.7-3q0.9-1.9 0.9-4c0-5.2-4.2-9.4-9.3-9.4q-1.8 0-3.5 0.7-0.5 0.2-1.1 0.2-0.6 0-1.2 0h-0.1c-0.1 0-0.3 0-0.7-0.1-0.9-0.1-1.8-0.7-2.1-1.7-1.3-3.7-4.8-6.2-8.8-6.2-5.2 0-9.4 4.1-9.4 9.3v24.3c0 1.3-1.1 2.5-2.5 2.5-1.3 0-2.5-1.2-2.5-2.5v-24.3c0-5.2-4.2-9.3-9.3-9.3-4 0-7.5 2.5-8.8 6.2-0.3 0.7-0.7 1.2-1.3 1.5-0.6 0.3-1.3 0.3-2 0q-1.6-0.6-3.3-0.6c-5.1 0-9.3 4.2-9.3 9.4q0 1.5 0.4 2.8c0.2 0.6 0.2 1.2-0.1 1.8-0.2 0.6-0.7 1.2-2.2 2.4-5.9 4.7-9.2 11.7-9.2 19.2 0 7.5 3.3 14.6 9.2 19.3 0.9 0.7 1.1 2 0.6 3q-0.8 1.9-0.8 4c0 5.2 4.1 9.4 9.3 9.4q1.8 0 3.5-0.7 0.5-0.2 1.1-0.2 0.6 0 1.2 0c0.2 0 0.3 0.1 0.7 0.1 1 0.1 1.8 0.7 2.2 1.7 1.3 3.7 4.8 6.3 8.8 6.3 5.1 0 9.3-4.2 9.3-9.4v-20c0-1.4 1.2-2.5 2.5-2.5 1.4 0 2.5 1.1 2.5 2.5v20c0 4.8 3.7 8.8 8.4 9.3zm5-1.1c0 15.1 12.2 27.5 27.3 27.5 15 0 27.2-12.4 27.2-27.5 0-15.2-12.2-27.5-27.2-27.5-15.1 0-27.3 12.3-27.3 27.5z"/>
	<path id="Layer" fill-rule="evenodd" class="s1" d="m96.1 27.1l0.1-0.3q0.6-2.1 0.6-4.2c0-7.6-6.2-13.9-13.8-13.9q-2.3 0-4.5 0.8l-0.4 0.1-0.2-0.4 0.4-0.2-0.4 0.2c-2.3-4.6-7.1-7.6-12.4-7.6-4.8 0-9 2.3-11.5 6l-0.4 0.6-0.4-0.6 0.4-0.3-0.4 0.3c-2.5-3.7-6.7-6-11.4-6-5.1 0-9.8 2.8-12.2 7.2l-0.1 0.3-0.4-0.1 0.1-0.5-0.1 0.5q-1.3-0.3-2.7-0.3c-7.6 0-13.8 6.3-13.8 13.9q0 1.4 0.2 2.7l0.1 0.3-0.2 0.2-0.3-0.4 0.3 0.4q-0.2 0.1-0.4 0.3l-0.2-0.4-0.1-0.1 0.3 0.5c-6.8 5.6-10.8 13.9-10.8 22.7 0 8.3 3.4 16.1 9.5 21.6l0.2 0.2-0.1 0.3-0.5-0.1 0.5 0.1q-0.6 2.1-0.6 4.2c0 7.7 6.2 13.9 13.8 13.9q2.3 0 4.5-0.8l0.4-0.1 0.2 0.4c2.3 4.6 7.1 7.7 12.4 7.7 4.7 0 8.9-2.4 11.4-6.1l0.4-0.6 0.4 0.6c2.5 3.6 6.5 5.9 11.1 6l0.4 0.1 0.1 0.4c2.8 14.7 15.7 25.8 31.2 25.8 17.5 0 31.7-14.3 31.7-31.9 0-15-10.3-27.6-24.1-31.1l0.1-0.5-0.1 0.5-0.5-0.1 0.2-0.5c3.9-11.1 0.9-23.5-7.8-31.5zm0.7 96.4c-15.8 0-29-11.4-32.1-26.4-4.5-0.2-8.5-2.5-11-5.8-2.7 3.5-7 5.9-11.9 5.9-5.5 0-10.5-3.1-13.1-7.9q-2.1 0.7-4.4 0.7c-8.2 0-14.8-6.7-14.8-14.9q0-2.1 0.6-4.1c-6.1-5.8-9.6-13.7-9.6-22.1 0-9.2 4.1-17.8 11.2-23.6q0.1 0 0.1-0.1-0.2-1.3-0.2-2.6c0-8.2 6.7-14.8 14.8-14.8q1.3 0 2.6 0.2c2.6-4.5 7.5-7.4 12.8-7.4 4.9 0 9.2 2.3 11.9 5.9 2.7-3.6 7-5.9 11.8-5.9 5.5 0 10.6 3 13.1 7.8q2.1-0.6 4.4-0.6c8.2 0 14.8 6.6 14.8 14.8q0 2.2-0.5 4.2c8.6 8.1 11.7 20.6 7.9 31.8 14 3.8 24.3 16.6 24.3 31.9 0 18.2-14.7 33-32.7 33zm-63.3-38.3c1.2 3.6 4.6 6 8.3 6 4.9 0 8.9-4 8.9-8.9v-20c0-1.7 1.3-3 3-3 1.6 0 3 1.3 3 3v20c0 4.4 3.2 8 7.3 8.7q0-0.2 0-0.5c0-4.5 0.9-8.8 2.6-12.7-2.3-0.9-4.1-2.6-5-4.9-1.3-3.3-0.6-6.9 1.9-9.4l0.8 0.7c-2.3 2.2-2.9 5.4-1.8 8.3 0.9 2.2 2.7 3.8 4.9 4.5l-0.2 0.5 0.5 0.2c-1.7 3.9-2.7 8.2-2.7 12.8q0 0.5 0.1 1.1h-0.5 0.5v0.6l-0.6-0.1c-5-0.5-8.8-4.7-8.8-9.8v-20c0-1.1-0.9-2-2-2-1.1 0-2 0.9-2 2v20c0 5.5-4.4 9.9-9.9 9.9-4.2 0-7.9-2.7-9.3-6.7-0.2-0.7-0.9-1.2-1.7-1.3-0.4 0-0.5 0-0.7 0q-0.6 0-1.2-0.1v-0.4 0.4-0.5 0.5q-0.5 0-0.9 0.2-1.8 0.7-3.7 0.7c-5.4 0-9.8-4.4-9.8-9.9q0-2.2 0.9-4.2c0.4-0.8 0.2-1.8-0.5-2.4-6-4.8-9.4-12-9.4-19.6 0-7.7 3.4-14.9 9.4-19.7 1.5-1.2 1.9-1.7 2.1-2.2l0.5 0.2-0.1-0.1-0.4-0.1c0.2-0.4 0.2-0.9 0.1-1.4q-0.5-1.5-0.5-3c0-5.4 4.4-9.8 9.8-9.8q1.9 0 3.5 0.6c0.5 0.2 1.1 0.2 1.6-0.1 0.5-0.2 0.9-0.6 1-1.1 1.4-4 5.1-6.6 9.3-6.6 5.5 0 9.9 4.4 9.9 9.8v24.3c0 1.1 0.9 2 2 2 1.1 0 2-0.9 2-2v-24.3c0-5.4 4.4-9.8 9.8-9.8 4.2 0 7.9 2.6 9.3 6.6 0.3 0.7 0.9 1.3 1.7 1.3v0.5-0.1 0.1-0.5c0.4 0.1 0.6 0.1 0.7 0.1q0.7 0 1.3 0 0.4 0 0.8-0.1 1.8-0.7 3.7-0.7c5.4 0 9.8 4.4 9.8 9.8q0 2.2-0.9 4.2c-0.4 0.8-0.2 1.8 0.5 2.4 8.7 7 11.7 18.9 7.6 29.1l-0.1 0.3h-0.4v-0.5l0.1-0.5q-0.2 0-0.4 0c3.7-9.8 0.8-20.9-7.4-27.6-1.1-0.9-1.4-2.4-0.8-3.6l0.5 0.2-0.2-0.1 0.2 0.1-0.5-0.2q0.8-1.8 0.8-3.8c0-4.9-3.9-8.8-8.8-8.8q-1.7 0-3.3 0.6l-0.1-0.4-0.1-0.1 0.2 0.5q-0.6 0.2-1.3 0.2v-0.5 0.5q-0.6 0-1.2 0c-0.2 0-0.4 0-0.8-0.1-1.2-0.1-2.2-0.9-2.5-2-1.3-3.5-4.6-5.9-8.4-5.9-4.9 0-8.8 3.9-8.8 8.8v24.3c0 1.6-1.4 3-3 3-1.7 0-3-1.4-3-3v-24.3c0-4.9-4-8.8-8.9-8.8-3.7 0-7.1 2.4-8.3 5.9l-0.2-0.1 0.2 0.1c-0.3 0.8-0.9 1.4-1.6 1.7-0.7 0.4-1.6 0.4-2.3 0.1q-1.5-0.5-3.2-0.5c-4.8 0-8.8 3.9-8.8 8.8q0 1.4 0.4 2.7c0.2 0.7 0.2 1.4-0.1 2.1-0.3 0.8-0.9 1.4-2.4 2.6-5.7 4.6-9 11.5-9 18.9 0 7.3 3.3 14.2 9 18.8 1.1 0.9 1.4 2.4 0.8 3.7q-0.8 1.7-0.8 3.7c0 4.9 4 8.9 8.8 8.9q1.8 0 3.3-0.7l0.2 0.5-0.2-0.5q0.7-0.2 1.3-0.2 0.6 0.1 1.2 0.1h0.1l-0.1 0.5 0.1-0.5c0.1 0 0.3 0 0.7 0 1.2 0.1 2.2 0.9 2.6 2zm66-27.1v0.5q-1.3-0.1-2.7-0.1c-11.2 0-21 5.8-26.7 14.6l-0.4-0.2v-0.5q-0.1 0-0.1 0v0.5l-0.1 0.5c-1.5-0.1-2.7-1-3.3-2.4-0.5-1.4-0.2-2.9 0.9-4 0.8-0.8 0.8-2 0-2.8q0 0 0 0c-0.8-0.8-2.1-0.8-2.8 0l-0.5-0.5 0.1 0.1-0.4-0.3c1.2-1.2 3.1-1.2 4.3 0 1.2 1.1 1.2 3 0 4.2-0.8 0.8-1 1.9-0.6 3 0.4 0.9 1.2 1.6 2.2 1.7 5.9-9 16-14.9 27.4-14.9q1.2 0 2.4 0.1-0.1 0.1-0.1 0.3zm-29.9 14.8v0.5h0.3l0.2-0.2zm-0.2 0.4v-0.5 0.1-0.1l0.2 0.1-0.1 0.5q0-0.1-0.1-0.1zm0.5 17.2c0 14.8 12 27 26.7 27 14.8 0 26.8-12.2 26.8-27 0-14.9-12-27-26.8-27-14.7 0-26.7 12.1-26.7 27zm26.7 28c-15.3 0-27.7-12.6-27.7-28 0-15.5 12.4-28 27.7-28 15.3 0 27.8 12.5 27.8 28 0 15.4-12.5 28-27.8 28zm-29.4-41.5l0.6 0.2-0.3 0.5-0.4-0.2zm9.1-63.1v-0.4zm14.6 12.4l0.2 0.1-0.2-0.1zm-21.5 46.6v0.4zm-6-9.5l0.2 0.3-0.2-0.3zm-62.5-14.6h-0.5zm128 41.6h0.5zm-98.2-6.7v0.5zm-15-12.6l0.4 0.2zm-0.7-3l0.4-0.4zm-9.2-19.2h-0.5zm9.2-19.3l0.3 0.4zm2.3-4.2l-0.5 0.2zm12.2-11.6l-0.1 0.5zm3.2-1.6l0.5 0.2zm59.1 17.3l-0.3 0.4zm-25.4 41.2l0.5-0.2zm0.7-7l0.3-0.4zm-5.3 8.9l0.4-0.2z"/>
	<path id="Layer" fill-rule="evenodd" class="s1" d="m105.3 81.9h3.4c3 0 5.5 2.5 5.5 5.5v6.1c0 3-2.5 5.5-5.5 5.5h-3.4v3.5c0 3.1-2.5 5.6-5.6 5.6h-5.9c-3.1 0-5.6-2.5-5.6-5.6v-3.5h-3.4c-3 0-5.5-2.5-5.5-5.5v-6.1c0-3 2.5-5.5 5.5-5.5h3.4v-3.5c0-3.1 2.5-5.5 5.6-5.5h5.9c3.1 0 5.6 2.4 5.6 5.5zm3.4 12.2c0.3 0 0.5-0.3 0.5-0.6v-6c0-0.3-0.2-0.6-0.5-0.6h-5.9c-1.4 0-2.5-1.1-2.5-2.5v-6c0-0.3-0.3-0.5-0.6-0.5h-5.9c-0.3 0-0.6 0.2-0.6 0.5v6c0 1.4-1.1 2.5-2.5 2.5h-5.9c-0.3 0-0.5 0.3-0.5 0.6v6c0 0.3 0.2 0.6 0.5 0.6h5.9c1.4 0 2.5 1.1 2.5 2.5v5.9c0 0.3 0.3 0.6 0.6 0.6h5.9c0.3 0 0.6-0.3 0.6-0.6v-5.9c0-1.4 1.1-2.5 2.5-2.5z"/>
	<path id="Layer" fill-rule="evenodd" class="s1" d="m104.8 82.4v-4c0-2.8-2.3-5-5.1-5h-5.9c-2.8 0-5.1 2.2-5.1 5v4h-3.9c-2.8 0-5 2.3-5 5v6.1c0 2.8 2.2 5 5 5h3.9v4c0 2.8 2.3 5.1 5.1 5.1h5.9c2.8 0 5.1-2.3 5.1-5.1v-4h3.9c2.8 0 5-2.2 5-5v-6.1c0-2.7-2.2-5-5-5zm3.9-1c3.3 0 6.1 2.7 6.1 6v6.1c0 3.3-2.8 6-6.1 6h-2.9v3c0 3.3-2.7 6.1-6 6.1h-6c-3.3 0-6.1-2.8-6.1-6.1v-3h-2.9c-3.3 0-6-2.7-6-6v-6.1c0-3.3 2.7-6 6-6h2.9v-3c0-3.3 2.8-6 6.1-6h6c3.3 0 6 2.7 6 6v3zm0 12.1q0 0 0 0v-6.1q0 0 0 0 0 0 0 0h-5.9c-1.7 0-3-1.4-3-3v-6q0 0 0 0-0.1 0-0.1 0h-5.9q0 0-0.1 0 0 0 0 0v6c0 1.6-1.3 3-3 3h-5.9q0 0 0 0 0 0 0 0c0 0 0 6.1 0 6.1q0 0 0 0 0 0 0 0h5.9c1.7 0 3 1.4 3 3 0 0 0 6 0 6q0 0 0 0.1 0.1 0 0.1 0h5.9q0 0 0.1 0 0-0.1 0-0.1v-6c0-1.6 1.3-3 3-3h5.9q0 0 0 0zm-7.9 3v6c0 0.6-0.5 1.1-1.1 1.1h-5.9c-0.6 0-1.1-0.5-1.1-1.1v-6c0-1.1-0.9-2-2-2h-5.9c-0.6 0-1-0.5-1-1v-6.1c0-0.5 0.4-1 1-1h5.9c1.1 0 2-0.9 2-2v-6c0-0.5 0.5-1 1.1-1h5.9c0.6 0 1.1 0.5 1.1 1v6c0 1.1 0.9 2 2 2h5.9c0.6 0 1 0.5 1 1v6.1c0 0.5-0.4 1-1 1h-5.9c-1.1 0-2 0.9-2 2z"/>
	<path id="Layer" class="s0" d="m55.9 50.1c-0.4-1-1.4-1.6-2.4-1.6-1 0.1-2 0.8-2.3 1.8-0.3 1 0.1 2.1 0.9 2.7 0.9 0.6 2 0.7 2.9 0.1 1-0.7 1.4-2 0.9-3z"/>
</svg>