<svg version="1.2" xmlns="http://www.w3.org/2000/svg" viewBox="0 0 156 26" width="156" height="26">
	<title>image</title>
	<style>
		<!-- .s0 { fill: #0073ff } 
		.s1 { fill: #ff9f6a }  -->
	</style>
	<path id="Layer" fill-rule="evenodd" class="s0" d="m0.6 25v-22.2h5.5l3.6 9.9q0.3 1 0.6 2 0.3 1.1 0.7 2.1h0.1q0.3-1 0.6-2.1 0.3-1 0.6-2l3.5-9.9h5.5v22.2h-4.6v-8.1q0-0.8 0.1-1.8 0.1-1 0.2-2 0.1-1 0.2-2 0.1-1 0.2-1.8h-0.2l-1.8 5.3-3.1 8.5h-2.8l-3.1-8.5-1.8-5.3h-0.1q0.1 0.8 0.2 1.8 0.1 1 0.2 2 0.1 1 0.1 2 0.1 1 0.1 1.8v8.1zm33 0.4q-1.8 0-3.3-0.6-1.6-0.6-2.7-1.7-1.2-1.2-1.8-2.8-0.7-1.6-0.7-3.7 0-2.1 0.7-3.7 0.7-1.7 1.8-2.8 1.1-1.1 2.5-1.8 1.4-0.6 3-0.6 1.8 0 3.1 0.6 1.4 0.7 2.2 1.7 1 1.1 1.4 2.6 0.4 1.5 0.4 3.2 0 0.7 0 1.3-0.1 0.6-0.2 0.9h-10.1q0.4 1.9 1.5 2.7 1.2 0.9 2.9 0.9 1.8 0 3.7-1.1l1.6 3q-1.3 0.9-2.9 1.4-1.5 0.5-3.1 0.5zm-3.7-10.7h6.1q0-1.4-0.7-2.3-0.6-0.9-2.1-0.9-1.2 0-2.1 0.8-0.9 0.8-1.2 2.4zm19.8 10.7q-1.6 0-2.8-0.6-1.3-0.6-2.2-1.7-0.9-1.2-1.4-2.8-0.5-1.7-0.5-3.7 0-2.1 0.6-3.7 0.6-1.7 1.6-2.8 0.9-1.1 2.2-1.8 1.3-0.6 2.6-0.6 1.4 0 2.4 0.5 0.9 0.5 1.8 1.3l-0.2-2.6v-5.7h5v23.8h-4.1l-0.4-1.7h-0.1q-0.9 0.9-2.1 1.5-1.2 0.6-2.4 0.6zm1.3-4.1q0.8 0 1.5-0.3 0.6-0.4 1.3-1.2v-6.9q-0.7-0.6-1.4-0.9-0.7-0.2-1.4-0.2-1.2 0-2.1 1.2-1 1.1-1 3.5 0 2.5 0.8 3.7 0.8 1.1 2.3 1.1zm12.2 3.7v-16.9h5v16.9zm2.5-19.3q-1.3 0-2.1-0.8-0.8-0.7-0.8-1.9 0-1.1 0.8-1.8 0.8-0.7 2.1-0.7 1.3 0 2 0.7 0.9 0.7 0.9 1.8 0 1.2-0.9 1.9-0.7 0.8-2 0.8z"/>
	<path id="Layer" fill-rule="evenodd" class="s1" d="m82.2 25.4q-2.1 0-3.9-0.7-1.9-0.8-3.3-2.2-1.4-1.4-2.2-3.5-0.9-2.2-0.9-4.9 0-2.8 0.9-4.9 0.8-2.2 2.3-3.7 1.4-1.5 3.3-2.3 1.9-0.8 4-0.8 2.2 0 3.9 0.9 1.7 0.9 2.8 2l-2.7 3.2q-0.8-0.8-1.8-1.2-0.9-0.6-2.1-0.6-1.1 0-2.1 0.6-1 0.4-1.8 1.3-0.7 1-1.1 2.3-0.4 1.3-0.4 3 0 3.4 1.4 5.3 1.5 1.9 4 1.9 1.3 0 2.4-0.6 1.1-0.6 1.9-1.5l2.6 3.1q-2.8 3.3-7.2 3.3zm14.4 0q-1.1 0-2.1-0.4-0.9-0.4-1.5-1.1-0.7-0.7-1.1-1.6-0.3-0.9-0.3-2 0-2.6 2.2-4.1 2.3-1.5 7.3-2-0.1-1.2-0.7-1.8-0.6-0.7-2-0.7-1.1 0-2.1 0.4-1.1 0.4-2.3 1.1l-1.8-3.3q1.6-0.9 3.4-1.6 1.8-0.6 3.8-0.6 3.3 0 4.9 1.9 1.8 1.8 1.8 5.7v9.7h-4.1l-0.3-1.7h-0.2q-1.1 0.9-2.3 1.5-1.1 0.6-2.6 0.6zm1.7-3.9q0.9 0 1.5-0.3 0.6-0.4 1.3-1.1v-3q-2.7 0.4-3.7 1.1-1 0.7-1 1.7 0 0.9 0.5 1.3 0.5 0.3 1.4 0.3zm12 3.5v-16.9h4.1l0.3 3h0.2q0.9-1.7 2.2-2.6 1.3-0.8 2.6-0.8 0.7 0 1.1 0.1 0.5 0.1 0.9 0.3l-0.8 4.3q-0.5-0.2-0.9-0.2-0.4-0.1-1-0.1-0.9 0-2 0.7-1 0.7-1.7 2.4v9.8zm20.8 0.4q-1.8 0-3.4-0.6-1.6-0.6-2.7-1.7-1.2-1.2-1.8-2.8-0.7-1.6-0.7-3.7 0-2.1 0.7-3.7 0.7-1.7 1.8-2.8 1.1-1.1 2.5-1.8 1.5-0.6 3-0.6 1.8 0 3.1 0.6 1.4 0.7 2.3 1.7 0.9 1.1 1.3 2.6 0.5 1.5 0.5 3.2 0 0.7-0.1 1.3-0.1 0.6-0.1 0.9h-10.1q0.3 1.9 1.5 2.8 1.2 0.8 2.9 0.8 1.8 0 3.6-1.1l1.7 3q-1.3 0.9-2.9 1.4-1.6 0.5-3.1 0.5zm-3.8-10.7h6.1q0-1.4-0.6-2.3-0.7-0.9-2.2-0.9-1.2 0-2.1 0.8-0.9 0.8-1.2 2.4zm18.8 7.1v-6.3h-6v-3.5h6v-6.2h3.6v6.2h6v3.5h-6v6.3z"/>
</svg>