<svg version="1.2" xmlns="http://www.w3.org/2000/svg" viewBox="0 0 97 130" width="97" height="130">
	<title>image</title>
	<style>
		<!-- .s0 { fill: #007ef3 } 
		.s1 { fill: #007ef3;stroke: #007ef3 }  -->
	</style>
	<path id="Layer" fill-rule="evenodd" class="s0" d="m96.5 24.6v95.4c0 5-4.1 9-9.1 9h-79.8c-6.6 0-6.6-6.5-6.6-9v-95.4c0-4.9 4.1-9 9.1-9h17.4v-1.6c0-1.4 1.1-2.5 2.5-2.5h8.2c0-5.8 4.7-10.5 10.6-10.5 5.8 0 10.5 4.7 10.5 10.5h8.2c1.4 0 2.5 1.1 2.5 2.5v1.6h17.4c5 0 9.1 4.1 9.1 9zm-64 2h32.5v-10.1h-8.6c-0.8 0-1.5-0.4-2-1-0.5-0.7-0.6-1.5-0.4-2.2q0.3-0.9 0.3-1.8c0-3-2.5-5.5-5.5-5.5-3.1 0-5.6 2.5-5.6 5.5q0 0.9 0.3 1.8c0.2 0.7 0.1 1.5-0.4 2.2-0.5 0.6-1.2 1-2 1h-8.6zm54.9 97.4c2.3 0 4.1-1.8 4.1-4v-95.4c0-2.2-1.8-4-4.1-4h-17.4v6h13c1.3 0 2.5 1.1 2.5 2.5v33.5c0 1.4-1.2 2.5-2.5 2.5-1.4 0-2.5-1.1-2.5-2.5v-31h-63.5v81.4h63.5v-27.8c0-1.4 1.1-2.5 2.5-2.5 1.3 0 2.5 1.1 2.5 2.5v30.3c0 1.4-1.2 2.5-2.5 2.5h-68.5c-1.3 0-2.5-1.1-2.5-2.5v-86.4c0-1.4 1.2-2.5 2.5-2.5h13v-6h-17.4c-2.3 0-4.1 1.8-4.1 4v95.4c0 1.2 0.1 2.7 0.5 3.5 0.1 0.3 0.2 0.5 1.1 0.5z"/>
	<path id="Layer" fill-rule="evenodd" class="s0" d="m69.5 16.1v-2.1c0-1.1-0.9-2-2-2h-8.7v-0.5c0-5.5-4.5-10-10.1-10-5.5 0-10 4.5-10 10v0.5h-8.7c-1.1 0-2 0.9-2 2v2.1h-17.9c-4.7 0-8.6 3.9-8.6 8.5v95.4c0 1.2 0.1 3.4 0.8 5.2 0.4 0.9 1 1.7 1.8 2.3 0.8 0.6 1.9 1 3.5 1h79.8c4.7 0 8.6-3.8 8.6-8.5v-95.4c0-4.6-3.9-8.5-8.6-8.5zm27.5 103.9c0 5.2-4.3 9.5-9.5 9.5h-79.9c-1.7 0-3-0.4-4.1-1.2-1-0.7-1.6-1.7-2.1-2.7-0.8-2-0.8-4.4-0.8-5.6v-95.4c0-5.2 4.2-9.5 9.5-9.5h16.9v-1.1c0-1.6 1.4-3 3-3h7.8c0.2-5.8 5.1-10.5 11-10.5 5.9 0 10.7 4.7 11 10.5h7.7c1.7 0 3 1.4 3 3v1.1h17c5.2 0 9.5 4.3 9.5 9.5zm-65-103.9h9.1c0.7 0 1.3-0.3 1.6-0.8 0.4-0.6 0.5-1.2 0.3-1.8q-0.3-0.9-0.3-1.9c0-3.3 2.8-6 6.1-6 3.3 0 6 2.7 6 6q0 1-0.3 1.9c-0.2 0.6-0.1 1.2 0.3 1.8 0.4 0.5 1 0.8 1.6 0.8h9.1v11.1h-33.5zm32.5 10.1v-9.1h-8.1c-0.9 0-1.8-0.5-2.4-1.2-0.6-0.8-0.7-1.8-0.4-2.7q0.2-0.8 0.2-1.6c0-2.8-2.2-5-5-5-2.8 0-5.1 2.2-5.1 5q0 0.8 0.3 1.6c0.3 0.9 0.1 1.9-0.4 2.7-0.6 0.7-1.5 1.2-2.5 1.2h-8.1v9.1zm27.5 93.4v0.5c0 2.5-2.1 4.5-4.5 4.5h-79.9q-0.7 0-1.1-0.2c-0.3-0.2-0.4-0.5-0.5-0.6q0 0 0 0l0.5-0.2 0.4-0.2c0.1 0.1 0.1 0.1 0.1 0.1 0 0 0.2 0.1 0.6 0.1h79.9c1.9 0 3.4-1.6 3.5-3.5v0.5h0.5v-0.5h-0.5q0 0 0 0v-95.4c0-1.9-1.6-3.5-3.5-3.5h-17v5h12.5c1.6 0 3 1.4 3 3v33.5c0 1.7-1.4 3-3 3-1.7 0-3-1.3-3-3v-30.5h-62.4v80.4h62.4v-27.3c0-1.7 1.3-3 3-3 1.6 0 3 1.3 3 3v30.3c0 1.6-1.4 3-3 3h-68.4c-1.7 0-3-1.4-3-3v-86.4c0-1.6 1.3-3 3-3h12.4v-5h-16.9c-2 0-3.5 1.6-3.5 3.5v95.4c0 0.6 0 1.2 0 1.9 0.1 0.6 0.2 1.1 0.3 1.4l-0.4 0.2-0.5 0.2c-0.2-0.5-0.3-1.1-0.4-1.8 0-0.6 0-1.3 0-1.9v-95.4c0-2.5 2-4.5 4.5-4.5h17.9v7h-13.4c-1.1 0-2 0.9-2 2v86.4c0 1.1 0.9 2 2 2h68.4c1.1 0 2-0.9 2-2v-30.3c0-1.1-0.9-2-2-2-1.1 0-2 0.9-2 2v28.3h-64.4v-82.4h64.4v31.5c0 1.1 0.9 2 2 2 1.1 0 2-0.9 2-2v-33.5c0-1.1-0.9-2-2-2h-13.5v-7h18c2.4 0 4.5 2 4.5 4.5v94.9zm-84.4 4v1c0 0 0-1 0-1zm88.9-98.9h-0.5zm-42.1-9.1l-0.4 0.3zm-47.9 108l0.4-0.2z"/>
	<path id="Layer" class="s1" d="m85.3 73c-0.5-1-1.5-1.6-2.6-1.5-1 0.1-1.9 0.8-2.2 1.8-0.2 1 0.2 2.1 1 2.7 0.9 0.6 2 0.6 2.9 0 0.9-0.6 1.3-1.9 0.9-3z"/>
	<path id="Layer" fill-rule="evenodd" class="s0" d="m74.9 52.6c0.1 2.3-0.2 4.4-0.9 6.6-0.4 1.4-1.1 2.8-2 4.2-1.9 3.3-7.9 8.3-15 14.1-1.4 1.2-2.8 2.3-3.9 3.2-1.2 1.1-2.8 1.6-4.4 1.6-1.5 0-3.1-0.5-4.4-1.6-1-0.9-2.4-2-3.8-3.2-7.1-5.8-13.1-10.8-15-14.1-1.4-2.3-2.2-4.4-2.6-6.7-0.3-1.3-0.4-2.7-0.3-4.1q0 0 0 0 0.1-1.5 0.5-2.9 0-0.1 0-0.3 0.8-2.8 2.7-5.3c3.1-4 7.7-6.4 12.2-6.4 4.6 0 8.5 2.4 10.7 4.2 2.2-1.8 6-4.2 10.8-4.2 3.6 0 7.4 1.6 10.3 4.4 3.1 2.9 4.9 6.6 5.1 10.5zm-47.1 3.2q0.1 0.7 0.3 1.4h4l6.2-7.8c0.6-0.7 1.5-1 2.4-0.9 0.9 0.2 1.6 0.8 1.9 1.6l3.8 10.6 2.3-4.9c0.4-0.9 1.2-1.5 2.2-1.5 0.9-0.1 1.8 0.5 2.3 1.3l1.6 3.3 3.3-6.9c0.4-0.9 1.3-1.5 2.3-1.5 0.9 0.1 1.8 0.6 2.2 1.5l2.2 4.7h4.7q0.5-1.8 0.4-3.9c-0.3-5.7-5.8-10.1-10.4-10.1-3.7 0-6.7 2.2-8.1 3.4-1.5 1.4-3.8 1.4-5.3 0.1-1.2-1.1-4.5-3.5-8.1-3.5-2.9 0-6.1 1.7-8.2 4.4q-1.3 1.7-1.9 3.7 0 0.1 0 0.1-0.3 1-0.3 1.9-0.1 1.6 0.2 3zm26 17.8h0.1c4.4-3.6 10.9-8.9 13.3-11.9h-4.1c-0.9 0-1.8-0.5-2.2-1.4l-0.6-1.3-3.1 6.7c-0.4 0.8-1.3 1.4-2.2 1.4-1 0-1.9-0.5-2.3-1.4l-1.6-3.1-2.6 5.9c-0.4 0.9-1.3 1.5-2.3 1.5q0 0 0 0-0.1 0-0.1 0c-1-0.1-1.9-0.7-2.2-1.7l-4.5-12.3-4.2 5.3c-0.4 0.6-1.2 0.9-1.9 0.9h-2.6c2.7 3.1 8.7 8 12.9 11.4l0.1 0.1c1.4 1.2 2.8 2.3 3.9 3.2 0.6 0.5 1.6 0.5 2.3 0 1.1-0.9 2.5-2.1 3.9-3.3z"/>
	<path id="Layer" fill-rule="evenodd" class="s0" d="m70.2 41.7c3.1 3 5 6.8 5.2 10.9h-0.5 0.2-0.2 0.5c0.1 2.3-0.2 4.5-0.9 6.7l-0.2-0.1 0.2 0.1c-0.5 1.5-1.1 2.9-2 4.4-1 1.7-3.1 3.8-5.7 6.2-2.6 2.4-5.9 5.1-9.5 8l-0.3-0.4 0.3 0.4c-1.4 1.2-2.8 2.3-3.8 3.2-1.4 1.1-3.1 1.7-4.8 1.7-1.7 0-3.3-0.6-4.7-1.7l0.3-0.4 0.3-0.4c1.2 1 2.7 1.5 4.1 1.5 1.5 0 2.9-0.5 4.1-1.5 1.1-0.9 2.4-2 3.9-3.2 3.6-2.9 6.8-5.6 9.4-8 2.7-2.4 4.6-4.4 5.5-5.9 0.9-1.5 1.5-2.8 1.9-4.2 0.7-2.1 1-4.1 0.9-6.4-0.2-3.7-1.9-7.4-4.9-10.2-2.9-2.7-6.5-4.2-10-4.2-4.6 0-8.4 2.3-10.5 4l-0.3 0.3-0.3-0.2c-2.2-1.8-5.9-4.1-10.4-4.1-4.3 0-8.8 2.4-11.8 6.2l-0.8-0.6c3.1-4.1 7.9-6.6 12.6-6.6 4.6 0 8.4 2.3 10.7 4 2.3-1.7 6.1-4 10.8-4 3.8 0 7.7 1.7 10.7 4.5zm-46.6 7.9l-0.4-0.1-0.1-0.1 0.5 0.2q0 0.1-0.1 0.2l-0.4-0.1 0.4 0.1q-0.3 1.4-0.4 2.8h-0.5v0.5h0.5v-0.4c-0.1 1.3 0 2.6 0.3 3.9 0.3 2.2 1.1 4.3 2.5 6.6 0.9 1.5 2.8 3.6 5.5 6 2.6 2.3 5.9 5 9.4 7.9l-0.3 0.4 0.3-0.4c1.4 1.2 2.8 2.3 3.8 3.2l-0.6 0.8c-1-0.9-2.4-2-3.8-3.2-3.6-2.9-6.9-5.6-9.5-8-2.6-2.4-4.7-4.5-5.7-6.2-1.4-2.4-2.2-4.6-2.6-6.9-0.3-1.4-0.4-2.8-0.3-4.2q0 0 0-0.1 0 0 0 0 0.1-1.5 0.5-3 0-0.1 0-0.2 0.9-3 2.8-5.5l0.8 0.6q-1.8 2.4-2.6 5.2zm4.5 3.2q-0.1 1.6 0.2 2.9l-0.5 0.1-0.5 0.1q-0.3-1.5-0.2-3.1h0.4-0.4q0.1-1 0.3-2 0-0.1 0.1-0.2l0.4 0.2h0.1l-0.5-0.2q0.5-2 1.9-3.8c2.1-2.8 5.5-4.6 8.6-4.6 3.8 0 7.2 2.6 8.4 3.6 1.4 1.1 3.4 1.1 4.7 0 1.4-1.3 4.6-3.6 8.4-3.6 2.5 0 5.1 1.2 7.2 3.1 2 1.8 3.6 4.5 3.7 7.5h-1c-0.1-2.6-1.5-5.1-3.4-6.8-1.9-1.8-4.3-2.8-6.5-2.8-3.5 0-6.3 2.1-7.8 3.3-1.7 1.5-4.2 1.5-5.9 0.1-1.2-1.1-4.4-3.4-7.8-3.4-2.7 0-5.8 1.6-7.8 4.2q-1.3 1.7-1.8 3.5 0 0.1 0 0.2-0.3 0.8-0.3 1.7zm41.3 0h1q0.1 2.1-0.4 4l-0.1 0.4h-5.5l-0.1-0.3 0.5-0.2-0.5 0.2-2.1-4.7 0.5-0.2-0.2 0.1 0.1-0.1-0.4 0.2c-0.3-0.7-1.1-1.1-1.8-1.2v-1q0 0 0 0c1.1 0.1 2.2 0.7 2.7 1.8l-0.4 0.2 0.4-0.2q0 0 0 0l2 4.4h4q0.4-1.6 0.3-3.4zm-10.9-0.6l-3.2 6.9-0.5-0.2-0.4 0.2-1.7-3.2 0.6-0.3h-0.1l-0.5 0.3c-0.3-0.7-1-1.2-1.8-1.1v-0.5 0.5c-0.8 0-1.5 0.5-1.8 1.2l-2.2 5-0.5-0.3 0.5 0.3-0.5 1.1-0.4-1.2-3.8-10.6 0.9-0.3 3.4 9.4 1.7-3.8c0.5-1.1 1.5-1.8 2.7-1.8 1.1-0.1 2.2 0.6 2.7 1.6l1.2 2.4 2.8-6c0.5-1.1 1.6-1.8 2.8-1.8v0.5 0.5c-0.8 0-1.5 0.5-1.9 1.2zm-3.2 6.9l-0.4 1-0.5-1 0.4-0.2zm-12.2-9.1l-0.4 0.1zm-2.4-1.9c1.1 0.2 2 0.9 2.4 1.9l-1 0.4c-0.2-0.7-0.8-1.2-1.5-1.3l0.1-0.5-0.1 0.5 0.1-0.5-0.1 0.5c-0.7-0.1-1.5 0.1-1.9 0.7l-6.2 7.8-0.4-0.3 0.4 0.3-0.2 0.2h-4.6l-0.1-0.4q-0.2-0.7-0.3-1.4l1-0.2q0 0.5 0.2 1h3.3l6.1-7.6 0.4 0.3-0.4-0.3c0.7-0.9 1.8-1.3 2.8-1.1zm20.9 19.8c-2.5 2.1-5.2 4.3-7.4 6.2l-0.7-0.8c2.2-1.8 5-4.1 7.4-6.2 2.1-1.8 3.9-3.5 5.2-4.8h-3c-1.2 0-2.2-0.7-2.7-1.8l0.9-0.4-0.5 0.2 0.5-0.2c0.3 0.7 1 1.2 1.8 1.2h5.1l-0.7 0.8c-1.2 1.5-3.4 3.6-5.9 5.8zm-7.4 6.2h-0.1c-1.4 1.2-2.8 2.3-3.9 3.2l-0.3-0.4v0.1l0.3 0.3c-0.9 0.7-2.1 0.7-3 0l0.3-0.3v-0.1l-0.3 0.4c-1-0.9-2.4-2-3.9-3.2l0.5-0.5 0.2-0.3c1.4 1.2 2.8 2.3 3.9 3.2 0.4 0.5 1.2 0.5 1.7 0 1-0.9 2.4-2 3.9-3.2l0.3 0.4v-0.1zm7.2-13.9l-1 0.4-0.1-0.2-2.6 5.6c-0.5 1.1-1.5 1.7-2.7 1.7q0 0 0 0v-0.5-0.5c0.8 0 1.5-0.4 1.8-1.1l3.1-6.7 0.5-0.9 0.4 1zm-6.3 7.5c-1.2 0-2.2-0.6-2.8-1.6l-1.1-2.2-2.2 4.9c-0.5 1.1-1.5 1.8-2.7 1.8q0 0-0.1 0v-0.5 0.1-0.1 0.5q0 0 0 0v-0.5 0.5c-1.2-0.1-2.3-0.9-2.7-2l-4.2-11.5-3.6 4.6-0.4-0.3 0.4 0.3-0.3-0.2 0.3 0.2c-0.6 0.7-1.4 1.1-2.3 1.1h-1.5c2.9 3 8.3 7.4 12.1 10.6l-0.6 0.7c-4.2-3.4-10.3-8.4-13-11.5l-0.7-0.8h3.7c0.6 0 1.1-0.3 1.5-0.7l4.2-5.3 0.4 0.3-0.4-0.3 0.6-0.7 0.3 0.9 4.4 12.2c0.3 0.8 1 1.3 1.8 1.4q0 0 0 0 0.1 0 0.1 0c0.8 0 1.5-0.5 1.8-1.2l2.6-5.9 0.5 0.2 0.4-0.2 1.6 3.1-0.3 0.2 0.1-0.1-0.2 0.1 0.4-0.2c0.4 0.7 1.1 1.1 1.8 1.1l0.1 0.5-0.1-0.5 0.1 0.5zm-1.9-2.1l-0.2 0.1 0.2-0.1zm-2.5-3.1l0.4-1 0.5 1-0.4 0.2zm-6.7 10.9l-0.3 0.3zm-0.6 0.9l-0.1-0.1 0.7-0.8v0.1zm-17.9-30.3l0.4 0.3-0.4-0.3zm49.9 8.8h-0.3 0.3zm-13.2-0.4l0.4-0.1zm7.2 0.6h0.5zm-31.5-3.7l0.3 0.2-0.3-0.2zm-10.1 6.7l0.5-0.1zm26 17.7l-0.3-0.3zm-7.7-3.1v-0.4 0.4zm23.7-28.4l0.3-0.4zm-47 14.7l0.5-0.1zm2.6 6.7l-0.4 0.3zm27.7 17.2l0.3 0.4zm18.9-17.3l-0.4-0.2zm2-4.3l0.4 0.2zm-46.1-8.3l-0.5-0.1zm18.2-4.7l0.4-0.4zm5.3-0.1l0.3 0.4zm6.7 5.9l-0.5-0.3zm-9.4 3.8l-0.5-0.2zm8.6 9.9l0.4 0.2zm-8.7 2.8l0.5 0.2zm-4.7-0.1l0.5-0.2zm10 5.3l-0.3-0.4z"/>
	<path id="Layer" class="s1" d="m70.8 89.1h-44.1c-1.4 0-2.5 1.1-2.5 2.5 0 1.3 1.1 2.5 2.5 2.5h44.1c1.4 0 2.5-1.2 2.5-2.5 0-1.4-1.1-2.5-2.5-2.5z"/>
	<path id="Layer" class="s1" d="m70.8 99.1h-44.1c-1.4 0-2.5 1.1-2.5 2.5 0 1.3 1.1 2.5 2.5 2.5h44.1c1.4 0 2.5-1.2 2.5-2.5 0-1.4-1.1-2.5-2.5-2.5z"/>
</svg>