<svg version="1.2" xmlns="http://www.w3.org/2000/svg" viewBox="0 0 130 116" width="130" height="116">
	<title>image</title>
	<style>
		<!-- .s0 { fill: #ffffff } 
		.s1 { fill: #ffffff;stroke: #ffffff }  -->
	</style>
	<path id="Layer" fill-rule="evenodd" class="s0" d="m125.3 110.2c-2.8 3.3-7 5.2-11.4 5.2h-30.3c-8.3 0-15.1-6.7-15.1-15.1v-10c0-1.4 1.1-2.5 2.5-2.5 1.4 0 2.5 1.1 2.5 2.5v10c0 5.6 4.5 10.1 10.1 10.1h30.3c2.9 0 5.7-1.2 7.6-3.5 2-2.2 2.8-5.1 2.4-8l-6.3-43.5c-2.4-16.8-17.1-29.4-34-29.4-4.7 0-8.8 3.3-9.9 7.8v4.8c0.7 7.2 5.8 13.1 12.8 14.8 3.8 0.9 6.3 4 6.7 7.6 3 3.6 6.1 4.4 10 4.5 1.4 0 2.4 1.2 2.4 2.6 0 1.3-1.2 2.4-2.5 2.4q0 0-0.1 0c-4.7-0.2-8.2-1.3-11.2-3.8-0.7 1.1-1.6 2-2.7 2.7-1.4 0.9-3 1.3-4.6 1.3q-0.3 0-0.7 0c0.7 7.1 4.5 10.7 11.6 16.2 1.1 0.9 1.3 2.5 0.5 3.5-0.5 0.7-1.3 1-2 1-0.5 0-1.1-0.1-1.5-0.5-7.8-5.9-13.3-11-13.7-21.6q-2.7-1-5.2-2.4v0.8c0 1.4-1.1 2.5-2.5 2.5-1.4 0-2.5-1.1-2.5-2.5v-4.3q-1.9-1.5-3.5-3.3-1.6 1.8-3.5 3.3v36.9c0 8.4-6.8 15.1-15.1 15.1h-30.3c-4.4 0-8.6-1.9-11.4-5.2-2.9-3.3-4.2-7.7-3.5-12l6.3-43.5c1.3-9.4 6-17.9 13.2-24.1 7.1-6.2 16.3-9.6 25.7-9.6 3.7 0 7.2 1.3 9.8 3.6v-14.8c0-4.8 4-8.7 8.8-8.7 4.8 0 8.7 3.9 8.7 8.7v14.8c2.7-2.3 6.2-3.6 9.9-3.6 9.4 0 18.6 3.4 25.7 9.6 7.2 6.2 11.9 14.7 13.2 24.1l6.3 43.5c0.7 4.3-0.6 8.7-3.5 12zm-68.8-9.9v-33.4q-2.5 1.4-5.2 2.4c-0.4 10.6-6 15.7-13.7 21.6-0.4 0.4-1 0.5-1.5 0.5-0.7 0-1.5-0.3-2-1-0.8-1-0.6-2.6 0.5-3.5 7.1-5.5 10.9-9.1 11.6-16.2q-0.4 0-0.7 0c-3.1 0-5.8-1.6-7.4-4-2.9 2.5-6.4 3.6-11.1 3.8q-0.1 0-0.1 0c-1.4 0-2.5-1.1-2.5-2.4-0.1-1.4 1-2.6 2.4-2.6 3.9-0.1 7-0.9 10-4.5 0.4-3.6 2.9-6.7 6.6-7.6 7.1-1.7 12.2-7.6 12.8-14.8v-4.8c-1-4.5-5.1-7.8-9.8-7.8-16.9 0-31.6 12.6-34 29.4l-6.3 43.5c-0.4 2.9 0.4 5.8 2.4 8 1.9 2.3 4.7 3.5 7.6 3.5h30.3c5.6 0 10.1-4.5 10.1-10.1zm31.7-37.5c0.4-2-0.8-4-2.8-4.5-9.2-2.2-15.9-10-16.6-19.4q-0.1-0.1-0.1-0.2v-28.9c0-2-1.6-3.7-3.7-3.7-2.1 0-3.8 1.7-3.8 3.7v28.9q0 0.1 0 0.2c-0.7 9.4-7.4 17.2-16.6 19.4-2 0.5-3.2 2.5-2.8 4.5 0.4 1.7 1.9 2.9 3.7 2.9q0.4 0 0.9-0.1c6.1-1.5 11.5-4.8 15.6-9.7q0.5-0.6 1-1.3c0.5-0.6 1.2-1 2-1 0.8 0 1.5 0.4 2 1q0.5 0.7 1 1.3c4.1 4.9 9.5 8.2 15.6 9.7 1 0.2 2 0.1 2.9-0.5 0.8-0.5 1.4-1.3 1.7-2.3z"/>
	<path id="Layer" fill-rule="evenodd" class="s0" d="m129.3 98.1c0.7 4.5-0.6 9-3.6 12.4-3 3.5-7.3 5.4-11.8 5.4h-30.3c-8.6 0-15.6-7-15.6-15.6v-10c0-1.7 1.3-3 3-3 1.7 0 3 1.3 3 3v10c0 5.3 4.3 9.6 9.6 9.6h30.3c2.8 0 5.4-1.2 7.3-3.3 1.8-2.1 2.6-4.9 2.2-7.6l-6.3-43.5c-2.4-16.6-16.8-29-33.5-29-4.4 0-8.4 3.1-9.4 7.4v4.7c0.7 7 5.6 12.7 12.5 14.3l-0.1 0.3-0.1 0.2 0.2-0.5c3.8 1 6.5 4.2 7 7.9 1.4 1.7 2.8 2.7 4.4 3.3 1.5 0.6 3.2 0.8 5.1 0.9 1.7 0.1 3 1.4 2.9 3.1-0.1 1.6-1.4 2.9-3 2.9q0 0-0.1 0c-4.6-0.2-8-1.2-11-3.6q-1.1 1.5-2.7 2.4c-1.4 0.9-3.1 1.4-4.8 1.4q0 0-0.1 0-0.1-0.3-0.1-0.6l-0.5 0.1 0.1-0.5q0.3 0 0.6 0c1.5 0 3-0.4 4.3-1.2 1.1-0.7 2-1.5 2.6-2.6l0.4 0.3 0.4-0.4c2.9 2.4 6.2 3.5 10.8 3.7v0.7-0.7q0.1 0 0.1 0c1.1 0 2-0.9 2-1.9 0-1.1-0.8-2.1-1.9-2.1-2-0.1-3.8-0.3-5.5-1-1.7-0.7-3.3-1.8-4.9-3.6l-0.1-0.2v-0.1c-0.3-3.4-2.8-6.3-6.3-7.2-7.2-1.7-12.5-7.8-13.2-15.2l0.5-0.1-0.5 0.1v-0.1-4.9h0.1c1-4.8 5.4-8.2 10.3-8.2 17.2 0 32 12.8 34.5 29.8l6.3 43.5c0.4 3.1-0.5 6.1-2.5 8.5-2 2.3-4.9 3.6-8 3.6h-30.3c-5.9 0-10.6-4.7-10.6-10.6v-10c0-1.1-0.9-2-2-2-1.1 0-2 0.9-2 2v10c0 8.1 6.5 14.6 14.6 14.6h30.3c4.2 0 8.3-1.8 11-5 2.8-3.2 4.1-7.5 3.4-11.7l-6.3-43.4c-1.3-9.3-5.9-17.7-13-23.9-7-6.1-16.1-9.4-25.4-9.4-3.6 0-6.9 1.3-9.5 3.5l-0.9 0.7v-15.9c0-4.5-3.7-8.2-8.2-8.2-4.6 0-8.3 3.7-8.3 8.2v15.9l-0.8-0.7c-2.6-2.2-5.9-3.5-9.5-3.5-9.3 0-18.4 3.3-25.4 9.4l-0.7-0.7c7.3-6.3 16.5-9.7 26.1-9.7 3.5 0 6.7 1.1 9.3 3.1v-13.8c0-5.1 4.2-9.2 9.3-9.2 5.1 0 9.2 4.1 9.2 9.2v13.8c2.7-2 5.9-3.1 9.4-3.1 9.6 0 18.8 3.4 26.1 9.7 7.2 6.3 12 14.9 13.3 24.4zm-109-67.9l0.4 0.4-0.2-0.2 0.5 0.6c-7.1 6.1-11.7 14.5-13 23.8l-6.3 43.5-1-0.2 6.3-43.5c1.3-9.5 6.1-18.1 13.3-24.4zm-16 80.3c-3-3.4-4.3-7.9-3.6-12.4l1 0.2c-0.7 4.2 0.6 8.4 3.4 11.6 2.7 3.2 6.7 5 11 5h30.3c8.1 0 14.6-6.5 14.6-14.5v-36.9h0.5l-0.3-0.4-0.2 0.1v0.3h0.5l-0.3-0.4q1.8-1.6 3.4-3.4l0.4 0.4 0.4-0.4q1.6 1.8 3.4 3.4l-0.3 0.4h0.5v-0.3l-0.2-0.1-0.3 0.4h0.5v4.2c0 1.1 0.9 2 2 2 1.1 0 2-0.9 2-2v-1.6l0.7 0.4-0.2 0.4 0.2-0.4q2.5 1.4 5.2 2.4l0.3 0.1v0.3h-0.5 0.5c0.2 5.2 1.7 9 4 12.3 2.4 3.2 5.6 5.9 9.5 8.9 0.3 0.3 0.8 0.4 1.2 0.4 0.6 0 1.2-0.2 1.6-0.7 0.6-0.9 0.5-2.2-0.4-2.9l0.3-0.3-0.1 0.1-0.2 0.2c-3.6-2.7-6.3-5-8.3-7.6-2-2.6-3.1-5.3-3.5-9h0.5v0.5q0.3 0 0.6 0c0.4 3.2 1.4 5.6 3.2 7.9 1.9 2.4 4.5 4.7 8.1 7.5 1.3 1 1.6 2.8 0.6 4.2l-0.4-0.3 0.4 0.3c-0.6 0.7-1.5 1.1-2.4 1.1-0.7 0-1.3-0.2-1.8-0.6l0.2-0.3-0.2 0.3c-3.9-3-7.3-5.8-9.7-9.1-2.4-3.4-3.9-7.3-4.2-12.5q-2.2-0.8-4.2-1.9c0 1.6-1.4 2.9-3 2.9-1.7 0-3-1.3-3-3v-4q-1.6-1.3-3-2.9-1.4 1.6-3 2.9v36.7c0 8.5-7 15.5-15.6 15.5h-30.3c-4.5 0-8.8-1.9-11.8-5.4l0.4-0.3zm91.9-19.8l-0.2-0.2zm-49.8-24.6l-0.1-0.5 0.1 0.5q-0.5 0.1-1 0.1c-2 0-3.7-1.4-4.1-3.3-0.6-2.3 0.9-4.5 3.1-5.1 9-2.1 15.5-9.7 16.3-18.9h0.5-0.5q0-0.1 0-0.2v-28.9c0-2.3 1.9-4.2 4.2-4.2 2.4 0 4.3 1.9 4.3 4.2v28.9q0 0.1 0 0.2h-0.5 0.5c0.8 9.2 7.3 16.8 16.2 18.9 2.3 0.6 3.7 2.8 3.2 5.1-0.3 1.1-1 2.1-1.9 2.7-1 0.6-2.1 0.7-3.2 0.5-6.3-1.5-11.8-4.9-15.9-9.9q-0.6-0.6-1.1-1.3l0.8-0.6q0.5 0.7 1 1.3c4 4.8 9.3 8 15.4 9.5l-0.1 0.5 0.1-0.5-0.1 0.5 0.1-0.5c0.8 0.2 1.7 0.1 2.5-0.4l0.2 0.4-0.1-0.1 0.1 0.1-0.2-0.4c0.7-0.4 1.2-1.2 1.4-2 0.4-1.7-0.7-3.5-2.4-3.9-9.4-2.3-16.2-10.2-17-19.8q0-0.2 0-0.3v-28.9c0-1.8-1.5-3.2-3.3-3.2-1.8 0-3.2 1.4-3.2 3.2v28.9q0 0.1 0 0.3c-0.8 9.6-7.7 17.5-17 19.8-1.8 0.4-2.9 2.2-2.4 3.9 0.3 1.5 1.6 2.5 3.1 2.5q0.4 0 0.8-0.1c6-1.5 11.4-4.7 15.3-9.5q0.6-0.6 1-1.3l0.4 0.3h-0.1l-0.3-0.3c0.6-0.7 1.5-1.2 2.4-1.2 1 0 1.9 0.5 2.4 1.2l-0.4 0.3-0.4 0.3c-0.3-0.5-0.9-0.8-1.6-0.8-0.6 0-1.2 0.3-1.6 0.8q-0.5 0.7-1 1.3l-0.5-0.4 0.1 0.1 0.4 0.3c-4.1 5-9.6 8.4-15.9 9.9zm18.2-6.4l0.3-0.4 0.4 0.4-0.4 0.4zm26.8 6.7l0.3-0.5 0.5 0.4-0.3 0.4zm11.6 3.5l-0.1 0.5zm-46 29.8v0.5c0 5.9-4.7 10.6-10.6 10.6h-30.3c-3.1 0-6-1.3-8-3.6-2-2.4-2.9-5.4-2.5-8.5l6.3-43.5c2.5-17 17.3-29.8 34.5-29.8 4.9 0 9.3 3.4 10.3 8.2l0.1 0.1v4.8 0.1l-0.5-0.1 0.5 0.1c-0.7 7.4-6 13.5-13.2 15.2-3.5 0.9-6 3.8-6.3 7.2v0.1l-0.1 0.2-0.4-0.4 0.4 0.4c-1.6 1.8-3.2 2.9-4.9 3.6-1.7 0.7-3.5 0.9-5.5 1-1.1 0-1.9 1-1.9 2.1 0 1.1 0.9 1.9 2 1.9q0 0 0.1 0v0.5-0.5c4.6-0.1 8-1.3 10.8-3.7l0.5-0.3 0.3 0.5-0.4 0.2 0.4-0.2c1.5 2.2 4 3.7 6.9 3.7q0.3 0 0.6 0l0.6-0.1v0.6c-0.4 3.7-1.5 6.4-3.5 9-1.9 2.6-4.7 4.9-8.3 7.6-0.9 0.7-1 2-0.4 2.8 0.4 0.6 1 0.8 1.6 0.8 0.4 0 0.9-0.1 1.2-0.4 3.9-3 7.2-5.7 9.5-8.9 2.3-3.3 3.8-7.1 4-12.3v-0.3l0.3-0.1 0.2 0.4-0.2-0.4q2.7-1 5.2-2.4l0.7-0.4v33.7zm-5.2-30.1c-0.3 5.2-1.8 9.1-4.2 12.4-2.4 3.4-5.8 6.2-9.6 9.2l-0.3-0.3 0.3 0.3c-0.6 0.4-1.2 0.6-1.9 0.6-0.9 0-1.8-0.4-2.4-1.1-1-1.4-0.7-3.2 0.6-4.3 3.6-2.7 6.3-5 8.1-7.4 1.8-2.3 2.8-4.7 3.2-7.9q0.3 0 0.6 0v-0.5l-0.5-0.1q0 0.3-0.1 0.6 0 0-0.1 0c-3 0-5.7-1.4-7.4-3.7-3 2.3-6.5 3.4-11.1 3.5q0 0-0.1 0c-1.6 0-2.9-1.3-3-2.9 0-1.6 1.3-3 2.9-3.1 1.9-0.1 3.6-0.3 5.2-0.9 1.5-0.6 2.9-1.6 4.3-3.3 0.5-3.7 3.2-6.9 7-7.8 6.9-1.7 11.8-7.4 12.5-14.4v-4.7c-1-4.3-4.9-7.4-9.4-7.4-16.7 0-31.1 12.4-33.5 29l-6.3 43.5c-0.4 2.7 0.4 5.5 2.3 7.6l-0.4 0.3 0.4-0.3c1.8 2.1 4.4 3.3 7.2 3.3h30.3c5.3 0 9.6-4.2 9.6-9.5v0.4h0.5v-0.5h-0.5q0 0.1 0 0.1v-32.6q-2 1.1-4.2 1.9zm34.6-4.7l-0.2-0.3zm-65.8-34.6l-0.2-0.2zm62.8 40.3l-0.1-0.6h0.6v0.5zm-78.7 39.5l-0.4 0.4zm117.9-55.6l-0.5 0.1zm-13.2-24.1l-0.3 0.4zm-101.9 24.1l0.5 0.1zm-6.3 43.5l-0.5-0.1zm87.9-28.8l0.3 0.4zm16.5-1.3h-0.5zm-2.4-2.6v0.5zm14.4-10.1l-0.5 0.1zm6.3 43.5l-0.5 0.1zm1.4 11.3l-0.4-0.4zm3.5-12l0.5-0.1zm-120.3 8.8l0.3-0.3zm-2.3-8.1l0.5 0.1zm6.3-43.5l-0.5-0.1zm31-1.9l-0.1-0.5zm-16.6 12.1v0.5zm-2.4 2.5l-0.5 0.1zm10.2 18.8l-0.3-0.4zm-0.5 3.5l-0.4 0.3zm51.3-32.1l0.1-0.5zm-40.8 0l-0.1-0.5zm-2.8 4.5l-0.5 0.1zm46.4 0l-0.5-0.1z"/>
	<path id="Layer" class="s1" d="m68.7 80c0.4 1 1.4 1.6 2.4 1.5 1.1 0 2-0.7 2.3-1.7 0.3-1-0.1-2.1-0.9-2.8-0.8-0.6-2-0.6-2.9 0-1 0.6-1.4 1.9-0.9 3z"/>
</svg>