<svg version="1.2" xmlns="http://www.w3.org/2000/svg" viewBox="0 0 115 130" width="115" height="130">
	<title>image</title>
	<style>
		<!-- .s0 { fill: #007df2 } 
		.s1 { fill: #007df2;stroke: #007df2 }  -->
	</style>
	<path id="Layer" fill-rule="evenodd" class="s0" d="m67.3 4c4.2-1.8 8.7-2.7 13.3-2.7 18.6 0 33.7 15.1 33.7 33.7 0 13.9-3.9 27.5-11.3 39.3l-0.7 1-10.2 44.9c-1 4.3-4.5 7.6-8.9 8.4-5.9 1-11.6-3.1-12.6-9.1l-7.1-42.4c-0.4-2.5-2.4-4.5-4.9-4.9-3.2-0.6-6.3 1.6-6.9 4.9l-7.1 42.4c-0.7 4.4-4 8-8.3 8.9-6 1.4-11.8-2.3-13.2-8.2l-10.2-44.9-0.6-1c-7.4-11.8-11.3-25.4-11.3-39.3 0-4.6 0.9-9.1 2.7-13.3 7.4-17.1 27.2-25 44.3-17.7 6.1 2.6 13.1 2.6 19.3 0zm30.8 69.2l0.9-1.4c6.9-11.1 10.5-23.8 10.5-36.8 0-3.9-0.8-7.8-2.3-11.4-6.3-14.7-23.3-21.5-38-15.2-7.4 3.1-15.7 3.1-23.1 0-3.6-1.6-7.5-2.4-11.4-2.4-16 0-29 13-29 29 0 13 3.7 25.7 10.6 36.8l0.9 1.4q0.2 0.3 0.3 0.7l10.2 45.2c0.6 2.5 2.6 4.4 5.1 4.8 3.4 0.6 6.6-1.7 7.2-5.1l7.1-42.5c0.7-4.5 4.3-8 8.8-8.8 5.8-1 11.3 3 12.3 8.8l7.1 42.5c0.4 2.5 2.3 4.5 4.8 5 3.3 0.8 6.7-1.3 7.4-4.7l10.3-45.2q0.1-0.4 0.3-0.7z"/>
	<path id="Layer" fill-rule="evenodd" class="s0" d="m67.5 4.5l-0.2-0.5 0.2 0.5c-6.3 2.7-13.4 2.7-19.7 0l0.2-0.5-0.2 0.5c-16.9-7.2-36.4 0.6-43.6 17.4-1.8 4.1-2.7 8.6-2.7 13.1h-0.5 0.1-0.1 0.5c0 13.8 3.9 27.3 11.2 39l-0.4 0.3 0.4-0.3 0.7 1.1v0.1l-0.5 0.1 0.5-0.1 10.2 44.9c1.3 5.6 6.9 9.1 12.5 7.9 4.2-1 7.4-4.3 8-8.5h0.5l0.5 0.1-1-0.1 7.1-42.5 0.6 0.1h-0.1l-0.5-0.1c0.6-3.5 4-5.9 7.5-5.3l-0.1 0.5 0.1-0.2-0.1 0.2 0.1-0.5c2.7 0.4 4.9 2.6 5.3 5.3l-0.5 0.1h0.1l0.4-0.1 7.1 42.5h-0.5l-0.5 0.1-7-42.4c-0.4-2.3-2.2-4.2-4.6-4.5-3-0.5-5.8 1.5-6.3 4.5l-7.1 42.4c-0.7 4.6-4.2 8.3-8.7 9.3-6.2 1.4-12.3-2.4-13.8-8.6l-10.1-44.8-0.7-1c-7.4-11.8-11.3-25.5-11.3-39.5q0 0 0 0c0-4.7 0.9-9.2 2.8-13.5l0.4 0.2-0.4-0.2c7.4-17.3 27.5-25.4 44.9-17.9 6 2.5 12.9 2.5 18.9 0 4.3-1.9 8.8-2.8 13.5-2.8 18.9 0 34.2 15.3 34.2 34.2 0 14-4 27.7-11.4 39.5l-0.6 1-10.2 44.8c-1 4.5-4.7 8-9.3 8.7-6.2 1.1-12.1-3.1-13.2-9.4l1-0.1c1 5.7 6.4 9.5 12.1 8.6 4.2-0.7 7.5-3.9 8.4-8l10.2-44.9 0.5 0.1-0.5-0.1 0.1-0.1 0.7-1.1 0.3 0.2 0.1 0.1-0.4-0.3c7.3-11.7 11.2-25.2 11.2-39h0.4-0.4 0.5-0.5c0-18.4-14.9-33.2-33.2-33.2-4.5 0-9 0.9-13.1 2.7zm0.2 71.9c-0.9-5.6-6.2-9.3-11.8-8.4-4.3 0.7-7.6 4.1-8.3 8.4l-7.1 42.4c-0.6 3.7-4.1 6.2-7.8 5.6-2.7-0.5-4.8-2.5-5.5-5.2l-10.2-45.2q-0.1-0.3-0.3-0.6l-0.8-1.4 0.4-0.2-0.4 0.2c-7-11.1-10.7-23.9-10.7-37h0.5-0.5c0-16.3 13.2-29.5 29.5-29.5v0.5 0.5q0 0 0 0c-15.7 0-28.5 12.8-28.5 28.5 0 12.9 3.7 25.5 10.5 36.5l0.9 1.4q0.2 0.4 0.4 0.9l10.2 45.2-0.5 0.1-0.4 0.1 0.9-0.2c0.5 2.3 2.4 4 4.7 4.4 3.1 0.5 6.1-1.6 6.6-4.7l0.5 0.1-0.2-0.1 0.2 0.1-0.5-0.1 7.1-42.5 0.4 0.1h-0.1 0.2l-0.5-0.1c0.8-4.7 4.5-8.4 9.2-9.2 6.1-1 11.9 3.1 12.9 9.2l-0.5 0.1h0.2-0.2l0.5-0.1 7.1 42.5-0.5 0.1h-0.5l-7.1-42.4zm31.7-4.4l-0.4-0.2 0.4 0.2-0.9 1.4q-0.1 0.3-0.2 0.6l-10.3 45.2c-0.8 3.7-4.4 5.9-8.1 5.1-2.6-0.6-4.7-2.8-5.1-5.5l1-0.1c0.4 2.3 2.1 4.1 4.4 4.6 3.1 0.7 6.1-1.2 6.8-4.3l10.3-45.2 0.5 0.1-0.5-0.1q0.1-0.5 0.4-0.9l0.4 0.3-0.4-0.3 0.9-1.4c6.8-11 10.4-23.6 10.4-36.5 0-3.9-0.7-7.7-2.3-11.2-6.2-14.5-22.9-21.2-37.3-15l-0.2-0.4 0.2 0.4c-7.5 3.2-16 3.2-23.5 0l0.2-0.4 0.2-0.5c-3.7-1.6-7.6-2.4-11.6-2.4v1c3.8 0 7.7 0.8 11.2 2.3l0.4-0.9q0 0 0 0c7.2 3.1 15.4 3.1 22.7 0 14.9-6.4 32.2 0.5 38.7 15.5 1.5 3.6 2.3 7.6 2.3 11.6q0 0 0 0c0 13.1-3.6 25.9-10.6 37zm-94.2-37h0.5-0.5zm63.2 41.3l0.3-0.1zm-4.8 0.8h0.5zm-12.4-0.1l0.5 0.1-0.5-0.1zm-6.6 42.5l-0.5-0.1zm-43.5-84.5h0.4zm38.7 83.7h-0.3zm6.7-42.5h0.3-0.3zm12.2-4.6l-0.1 0.4 0.1-0.4zm16 47.2l0.5-0.1-0.5 0.1zm-18.9-51.4l0.1 0.5zm24.7-66.2v-0.5zm11.6 118.9l0.4 0.1zm-8.8 8.4v0.5zm-47-0.1l0.2 0.5zm-13.2-8.3l0.5-0.1zm-19.4-98.5l-0.4-0.2zm105.8 13.3h-0.5zm-2.4-11.4l-0.4 0.2zm-74.4 100.3l0.1-0.5zm47.2-0.1l0.1-0.4zm7.5-4.8l0.5 0.2z"/>
	<path id="Layer" class="s1" d="m27 17.8l-0.5-2.3c-4.7 0.9-13.7 6.1-13.7 18.8h4.7c0-11.9 9.5-14.1 9.9-14.2z"/>
	<path id="Layer" class="s1" d="m31.7 15.4h4.7v4.8h-4.7z"/>
</svg>